<svg width="108" height="137" viewBox="0 0 108 137" fill="none" xmlns="http://www.w3.org/2000/svg">
<path d="M97.0464 127.96C90.1464 127.96 86.0984 122.854 86.0984 115.954C86.0984 109.054 90.1464 104.04 97.0464 104.04C103.9 104.04 107.902 109.054 107.902 115.954C107.902 122.854 103.9 127.96 97.0464 127.96ZM97.0464 107.72C92.1244 107.72 89.9624 111.584 89.9624 115.954C89.9624 120.324 92.1244 124.28 97.0464 124.28C101.922 124.28 104.038 120.324 104.038 115.954C104.038 111.584 101.922 107.72 97.0464 107.72Z" fill="#101214"/>
<path d="M83.8967 127.454C83.5747 127.546 82.8847 127.638 81.8727 127.638C78.1007 127.638 75.7087 125.844 75.7087 121.612V94.8857H79.6647V121.152C79.6647 123.222 81.0447 123.958 82.7467 123.958C83.1607 123.958 83.4367 123.958 83.8967 123.912V127.454Z" fill="#101214"/>
<path d="M71.9026 127.454C71.5806 127.546 70.8906 127.638 69.8786 127.638C66.1066 127.638 63.7146 125.844 63.7146 121.612V94.8857H67.6706V121.152C67.6706 123.222 69.0506 123.958 70.7526 123.958C71.1666 123.958 71.4426 123.958 71.9026 123.912V127.454Z" fill="#101214"/>
<path d="M48.8837 107.628C44.6977 107.628 42.5817 110.342 42.1677 114.344H55.0017C54.7717 110.066 52.8397 107.628 48.8837 107.628ZM57.7157 126.58C55.8297 127.592 52.9317 127.96 50.5857 127.96C41.9837 127.96 38.2117 122.992 38.2117 115.954C38.2117 109.008 42.0757 104.04 49.0677 104.04C56.1517 104.04 59.0037 108.962 59.0037 115.954V117.748H42.2137C42.7657 121.658 45.2957 124.188 50.7237 124.188C53.3917 124.188 55.6457 123.682 57.7157 122.946V126.58Z" fill="#101214"/>
<path d="M28.4966 113.93V127.5H24.6326V104.5H28.4966V108.548C29.8306 105.834 32.1306 103.902 36.6386 104.178V108.042C31.5786 107.536 28.4966 109.054 28.4966 113.93Z" fill="#101214"/>
<path d="M0 97.2773H22.632V101.233H13.386V127.499H9.246V101.233H0V97.2773Z" fill="#101214"/>
<path d="M17.5479 18.75C17.5479 8.39466 25.9425 0 36.2979 0H73.7979C84.1532 0 92.5479 8.39466 92.5479 18.75V56.25C92.5479 66.6053 84.1532 75 73.7979 75H36.2979C25.9425 75 17.5479 66.6053 17.5479 56.25V18.75Z" fill="#1558BC"/>
<path d="M47.7753 56.25C49.2335 56.25 50.4169 55.0984 50.4169 53.6748V21.3252C50.4169 19.9036 49.2355 18.75 47.7753 18.75H36.5957C35.1375 18.75 33.9541 19.9016 33.9541 21.3252V53.6748C33.9541 55.0964 35.1354 56.25 36.5957 56.25H47.7753Z" fill="white"/>
<path d="M73.5 41.3988C74.9582 41.3988 76.1416 40.2471 76.1416 38.8236V21.3252C76.1416 19.9036 74.9603 18.75 73.5 18.75H62.3204C60.8622 18.75 59.6788 19.9016 59.6788 21.3252V38.8236C59.6788 40.2451 60.8602 41.3988 62.3204 41.3988H73.5Z" fill="white"/>
</svg>
