<svg width="108" height="137" viewBox="0 0 108 137" fill="none" xmlns="http://www.w3.org/2000/svg">
<path d="M97.0466 127.96C90.1466 127.96 86.0986 122.854 86.0986 115.954C86.0986 109.054 90.1466 104.04 97.0466 104.04C103.901 104.04 107.903 109.054 107.903 115.954C107.903 122.854 103.901 127.96 97.0466 127.96ZM97.0466 107.72C92.1246 107.72 89.9626 111.584 89.9626 115.954C89.9626 120.324 92.1246 124.28 97.0466 124.28C101.923 124.28 104.039 120.324 104.039 115.954C104.039 111.584 101.923 107.72 97.0466 107.72Z" fill="white"/>
<path d="M83.897 127.454C83.575 127.546 82.885 127.638 81.873 127.638C78.101 127.638 75.709 125.844 75.709 121.612V94.8857H79.665V121.152C79.665 123.222 81.045 123.958 82.747 123.958C83.161 123.958 83.437 123.958 83.897 123.912V127.454Z" fill="white"/>
<path d="M71.9028 127.454C71.5808 127.546 70.8908 127.638 69.8788 127.638C66.1068 127.638 63.7148 125.844 63.7148 121.612V94.8857H67.6708V121.152C67.6708 123.222 69.0508 123.958 70.7528 123.958C71.1668 123.958 71.4428 123.958 71.9028 123.912V127.454Z" fill="white"/>
<path d="M48.8839 107.628C44.6979 107.628 42.5819 110.342 42.1679 114.344H55.0019C54.7719 110.066 52.8399 107.628 48.8839 107.628ZM57.7159 126.58C55.8299 127.592 52.9319 127.96 50.5859 127.96C41.9839 127.96 38.2119 122.992 38.2119 115.954C38.2119 109.008 42.0759 104.04 49.0679 104.04C56.1519 104.04 59.0039 108.962 59.0039 115.954V117.748H42.2139C42.7659 121.658 45.2959 124.188 50.7239 124.188C53.3919 124.188 55.6459 123.682 57.7159 122.946V126.58Z" fill="white"/>
<path d="M28.4968 113.93V127.5H24.6328V104.5H28.4968V108.548C29.8308 105.834 32.1308 103.902 36.6388 104.178V108.042C31.5788 107.536 28.4968 109.054 28.4968 113.93Z" fill="white"/>
<path d="M0 97.2773H22.632V101.233H13.386V127.499H9.246V101.233H0V97.2773Z" fill="white"/>
<path d="M17.5479 18.75C17.5479 8.39466 25.9425 0 36.2979 0H73.7979C84.1532 0 92.5479 8.39466 92.5479 18.75V56.25C92.5479 66.6053 84.1532 75 73.7979 75H36.2979C25.9425 75 17.5479 66.6053 17.5479 56.25V18.75Z" fill="#1558BC"/>
<path d="M47.7753 56.25C49.2335 56.25 50.4169 55.0984 50.4169 53.6748V21.3252C50.4169 19.9036 49.2355 18.75 47.7753 18.75H36.5957C35.1375 18.75 33.9541 19.9016 33.9541 21.3252V53.6748C33.9541 55.0964 35.1354 56.25 36.5957 56.25H47.7753Z" fill="white"/>
<path d="M73.5 41.3988C74.9582 41.3988 76.1416 40.2471 76.1416 38.8236V21.3252C76.1416 19.9036 74.9603 18.75 73.5 18.75H62.3204C60.8622 18.75 59.6788 19.9016 59.6788 21.3252V38.8236C59.6788 40.2451 60.8602 41.3988 62.3204 41.3988H73.5Z" fill="white"/>
</svg>
